<svg width="209" height="167" viewBox="0 0 209 167" fill="none" xmlns="http://www.w3.org/2000/svg">
<rect x="0.745605" y="0.25" width="207.37" height="165.896" fill="white"/>
<path fill-rule="evenodd" clip-rule="evenodd" d="M53.003 111.4H128.486C128.913 111.4 129.329 111.354 129.73 111.267C130.131 111.354 130.547 111.4 130.974 111.4H174.107C177.314 111.4 179.913 108.801 179.913 105.594C179.913 102.387 177.314 99.7876 174.107 99.7876H169.13C165.923 99.7876 163.324 97.188 163.324 93.9812C163.324 90.7744 165.923 88.1749 169.13 88.1749H184.89C188.097 88.1749 190.697 85.5753 190.697 82.3685C190.697 79.1617 188.097 76.5621 184.89 76.5621H166.642C169.848 76.5621 172.448 73.9625 172.448 70.7558C172.448 67.549 169.848 64.9494 166.642 64.9494H113.555C116.762 64.9494 119.361 62.3498 119.361 59.1431C119.361 55.9363 116.762 53.3367 113.555 53.3367H66.2747C63.0679 53.3367 60.4683 55.9363 60.4683 59.1431C60.4683 62.3498 63.0679 64.9494 66.2747 64.9494H33.0955C29.8887 64.9494 27.2891 67.549 27.2891 70.7558C27.2891 73.9625 29.8887 76.5621 33.0955 76.5621H53.8325C57.0392 76.5621 59.6388 79.1617 59.6388 82.3685C59.6388 85.5753 57.0392 88.1749 53.8325 88.1749H20.6533C17.4465 88.1749 14.8469 90.7744 14.8469 93.9812C14.8469 97.188 17.4465 99.7876 20.6533 99.7876H53.003C49.7962 99.7876 47.1966 102.387 47.1966 105.594C47.1966 108.801 49.7962 111.4 53.003 111.4ZM188.208 111.4C191.415 111.4 194.014 108.801 194.014 105.594C194.014 102.387 191.415 99.7876 188.208 99.7876C185.001 99.7876 182.402 102.387 182.402 105.594C182.402 108.801 185.001 111.4 188.208 111.4Z" fill="#DDDDDD"/>
<path fill-rule="evenodd" clip-rule="evenodd" d="M62.0064 100.071L59.1165 100.481C57.5632 100.702 56.127 99.6081 55.9087 98.0385L48.0033 41.1971C47.785 39.6274 48.8672 38.1762 50.4205 37.9556L105.967 30.0669C107.521 29.8463 108.957 30.9399 109.175 32.5095C109.175 32.5095 109.681 36.1439 109.854 37.3941" fill="white"/>
<path fill-rule="evenodd" clip-rule="evenodd" d="M63.8007 96.9062L61.1765 97.2831C59.766 97.4856 58.4637 96.4946 58.2678 95.0696L51.1708 43.4635C50.9749 42.0385 51.9594 40.719 53.3699 40.5164L103.809 33.272C105.219 33.0694 106.522 34.0604 106.718 35.4855L107.328 39.9202C107.361 40.1601 109.539 56.0882 113.864 87.7045C114.081 89.2921 112.998 90.7589 111.444 90.9809C111.428 90.9833 111.411 90.9855 111.394 90.9876L63.8007 96.9062Z" fill="#DDDDDD"/>
<path d="M62.0064 100.071L59.1165 100.481C57.5632 100.702 56.127 99.6081 55.9087 98.0385L48.0033 41.1971C47.785 39.6274 48.8672 38.1762 50.4205 37.9556L105.967 30.0669C107.521 29.8463 108.957 30.9399 109.175 32.5095C109.175 32.5095 109.681 36.1439 109.854 37.3941" stroke="#BBBBBB" stroke-width="2.0737" stroke-linecap="round"/>
<path d="M110.446 40.7024L110.801 42.9413" stroke="#BBBBBB" stroke-width="2.0737" stroke-linecap="round"/>
<path d="M71.7247 44.112C71.855 42.8589 72.9762 41.951 74.229 42.0841L129.065 47.9082C130.318 48.0412 131.228 49.1649 131.097 50.4179L125.252 106.612C125.122 107.865 124.001 108.773 122.748 108.64L67.9122 102.816C66.6595 102.683 65.7496 101.559 65.8799 100.306L71.7247 44.112Z" fill="white" stroke="#BBBBBB" stroke-width="2.0737"/>
<path fill-rule="evenodd" clip-rule="evenodd" d="M76.4667 50.2746C76.6089 48.9076 77.832 47.9171 79.1986 48.0623L122.974 52.7116C124.34 52.8567 125.333 54.0825 125.191 55.4495L121.327 92.5999C121.184 93.9669 119.961 94.9573 118.595 94.8122L74.8197 90.1629C73.4531 90.0177 72.4605 88.7919 72.6026 87.425L76.4667 50.2746Z" fill="white"/>
<path fill-rule="evenodd" clip-rule="evenodd" d="M78.6655 79.0872L85.2692 74.5865C86.6289 73.6598 88.4643 73.8728 89.5803 75.0868L94.3056 80.2275C94.6034 80.5515 95.1017 80.5873 95.4415 80.3091L105.816 71.8142C107.351 70.5573 109.642 70.9245 110.713 72.5993L117.503 83.2122L118.521 84.9284L118.043 90.6434C118.005 91.1084 117.59 91.449 117.126 91.397L76.9189 86.8828C76.4696 86.8323 76.1427 86.4314 76.1837 85.9812L76.7098 80.2083L78.6655 79.0872Z" fill="#DDDDDD"/>
<path d="M77.4977 50.3841C77.5807 49.5867 78.2942 49.0089 79.0914 49.0936L122.866 53.7429C123.664 53.8276 124.243 54.5426 124.16 55.34L120.296 92.4904C120.213 93.2878 119.499 93.8656 118.702 93.7809L74.927 89.1316C74.1298 89.0469 73.5508 88.3319 73.6337 87.5345L77.4977 50.3841Z" stroke="#BBBBBB" stroke-width="2.0737"/>
<ellipse cx="4.2607" cy="4.30451" rx="4.2607" ry="4.30451" transform="matrix(0.994407 0.105615 -0.103453 0.994634 83.6011 57.1873)" fill="#DDDDDD" stroke="#BBBBBB" stroke-width="2.0737"/>
<path d="M77.237 80.1973C80.0319 78.2469 85.6219 74.346 85.6219 74.346C86.7818 73.5555 88.3387 73.7363 89.2909 74.7722L94.3844 80.3134C94.6387 80.59 95.0615 80.6202 95.3517 80.3826L106.243 71.4643C107.462 70.4664 109.251 70.6558 110.238 71.8874C110.302 71.9669 110.362 72.0499 110.417 72.1359C110.417 72.1359 116.784 82.3465 118.272 84.7324" stroke="#BBBBBB" stroke-width="2.0737" stroke-linecap="round"/>
</svg>
